<svg viewBox="0 0 565 146" fill="none" xmlns="http://www.w3.org/2000/svg">
<path d="M154.237 89V64.34L153.337 59.84L154.237 57.14H169.537C172.927 57.14 175.642 57.77 177.682 59.03C179.722 60.29 180.742 62.33 180.742 65.15C180.742 66.56 180.502 67.835 180.022 68.975C179.542 70.115 178.852 71 177.952 71.63C179.992 72.29 181.492 73.295 182.452 74.645C183.412 75.995 183.892 77.6 183.892 79.46C183.892 82.73 182.932 85.145 181.012 86.705C179.122 88.235 176.347 89 172.687 89H154.237ZM162.337 69.515H169.447C170.467 69.515 171.202 69.275 171.652 68.795C172.102 68.315 172.327 67.685 172.327 66.905C172.327 65.915 171.997 65.24 171.337 64.88C170.677 64.52 169.897 64.34 168.997 64.34H162.337V69.515ZM162.337 81.8H171.337C172.417 81.8 173.212 81.665 173.722 81.395C174.262 81.125 174.607 80.78 174.757 80.36C174.937 79.94 175.027 79.505 175.027 79.055C175.027 78.275 174.742 77.615 174.172 77.075C173.632 76.505 172.837 76.22 171.787 76.22H162.337V81.8ZM203.177 89.45C201.137 89.45 199.157 89.225 197.237 88.775C195.317 88.295 193.577 87.455 192.017 86.255C190.487 85.055 189.272 83.39 188.372 81.26C187.472 79.13 187.022 76.4 187.022 73.07C187.022 69.98 187.472 67.385 188.372 65.285C189.272 63.185 190.472 61.505 191.972 60.245C193.472 58.985 195.107 58.085 196.877 57.545C198.677 56.975 200.477 56.69 202.277 56.69C203.807 56.69 205.292 56.81 206.732 57.05C208.202 57.29 209.267 57.56 209.927 57.86L214.922 61.955L210.872 68.48L203.177 64.52C201.047 64.52 199.247 65.225 197.777 66.635C196.307 68.015 195.572 70.16 195.572 73.07C195.572 75.14 195.932 76.82 196.652 78.11C197.402 79.4 198.422 80.345 199.712 80.945C201.002 81.545 202.472 81.845 204.122 81.845C205.862 81.845 207.347 81.71 208.577 81.44C209.807 81.14 210.887 80.795 211.817 80.405C212.747 79.985 213.632 79.58 214.472 79.19V86.75C213.422 87.41 212.027 88.025 210.287 88.595C208.547 89.165 206.177 89.45 203.177 89.45ZM233.082 89.45C231.162 89.45 229.287 89.225 227.457 88.775C225.657 88.295 224.022 87.455 222.552 86.255C221.112 85.055 219.957 83.39 219.087 81.26C218.247 79.13 217.827 76.4 217.827 73.07C217.827 69.74 218.247 67.01 219.087 64.88C219.957 62.75 221.112 61.085 222.552 59.885C224.022 58.685 225.657 57.86 227.457 57.41C229.287 56.93 231.162 56.69 233.082 56.69C235.002 56.69 236.862 56.93 238.662 57.41C240.492 57.89 242.127 58.73 243.567 59.93C245.037 61.13 246.192 62.795 247.032 64.925C247.902 67.055 248.337 69.77 248.337 73.07C248.337 76.37 247.902 79.085 247.032 81.215C246.192 83.345 245.037 85.01 243.567 86.21C242.127 87.41 240.492 88.25 238.662 88.73C236.862 89.21 235.002 89.45 233.082 89.45ZM233.082 81.8C235.302 81.8 236.982 81.14 238.122 79.82C239.262 78.5 239.832 76.25 239.832 73.07C239.832 69.89 239.262 67.64 238.122 66.32C236.982 65 235.302 64.34 233.082 64.34C230.892 64.34 229.227 65.015 228.087 66.365C226.947 67.715 226.377 69.95 226.377 73.07C226.377 76.19 226.947 78.425 228.087 79.775C229.227 81.125 230.892 81.8 233.082 81.8ZM253.729 89V64.385L252.829 59.84L253.729 57.14H268.129C270.319 57.14 272.284 57.485 274.024 58.175C275.794 58.835 277.189 59.975 278.209 61.595C279.259 63.185 279.784 65.39 279.784 68.21C279.784 70.76 279.319 72.83 278.389 74.42C277.459 75.98 276.169 77.15 274.519 77.93L274.969 78.425L279.424 84.005L281.989 86.3V89H271.864L265.564 79.415H261.829V81.755L262.279 86.255L261.829 89H253.729ZM261.829 72.35H266.239C267.799 72.35 269.044 72.065 269.974 71.495C270.904 70.895 271.369 69.8 271.369 68.21C271.369 67.1 271.144 66.275 270.694 65.735C270.244 65.165 269.614 64.79 268.804 64.61C268.024 64.43 267.109 64.34 266.059 64.34H261.379L261.829 72.35ZM286.029 89V64.385L285.129 59.885L286.029 57.14H299.439C301.599 57.14 303.669 57.35 305.649 57.77C307.659 58.16 309.444 58.91 311.004 60.02C312.594 61.13 313.839 62.72 314.739 64.79C315.669 66.86 316.134 69.545 316.134 72.845C316.134 76.145 315.669 78.86 314.739 80.99C313.809 83.09 312.549 84.725 310.959 85.895C309.369 87.065 307.569 87.875 305.559 88.325C303.579 88.775 301.539 89 299.439 89H286.029ZM294.219 81.8H299.439C302.079 81.8 304.104 81.11 305.514 79.73C306.924 78.32 307.629 76.025 307.629 72.845C307.629 69.665 306.909 67.46 305.469 66.23C304.059 64.97 302.049 64.34 299.439 64.34H294.219V81.8ZM334.992 89.45C333.072 89.45 331.197 89.225 329.367 88.775C327.567 88.295 325.932 87.455 324.462 86.255C323.022 85.055 321.867 83.39 320.997 81.26C320.157 79.13 319.737 76.4 319.737 73.07C319.737 69.74 320.157 67.01 320.997 64.88C321.867 62.75 323.022 61.085 324.462 59.885C325.932 58.685 327.567 57.86 329.367 57.41C331.197 56.93 333.072 56.69 334.992 56.69C336.912 56.69 338.772 56.93 340.572 57.41C342.402 57.89 344.037 58.73 345.477 59.93C346.947 61.13 348.102 62.795 348.942 64.925C349.812 67.055 350.247 69.77 350.247 73.07C350.247 76.37 349.812 79.085 348.942 81.215C348.102 83.345 346.947 85.01 345.477 86.21C344.037 87.41 342.402 88.25 340.572 88.73C338.772 89.21 336.912 89.45 334.992 89.45ZM334.992 81.8C337.212 81.8 338.892 81.14 340.032 79.82C341.172 78.5 341.742 76.25 341.742 73.07C341.742 69.89 341.172 67.64 340.032 66.32C338.892 65 337.212 64.34 334.992 64.34C332.802 64.34 331.137 65.015 329.997 66.365C328.857 67.715 328.287 69.95 328.287 73.07C328.287 76.19 328.857 78.425 329.997 79.775C331.137 81.125 332.802 81.8 334.992 81.8ZM361.509 89L353.409 64.295L352.059 59.84V57.14H360.609L366.954 80.81H367.854L374.109 57.14H382.569V59.84L381.219 64.295L373.164 89H361.509ZM381.228 89L383.388 81.395V75.68L386.718 74.33L392.568 57.185H404.223L411.468 77.345L414.933 83.735V89H406.968L404.718 81.8H391.623L389.688 89H381.228ZM394.593 74.87H402.243L398.823 64.565H397.878L394.593 74.87Z" fill="#38BDF8"/>
<path d="M259.512 137H254.668L254.707 133.934H259.512C261.217 133.934 262.604 133.608 263.672 132.957C264.74 132.293 265.527 131.316 266.035 130.027C266.543 128.725 266.797 127.117 266.797 125.203V120.34C266.797 118.829 266.654 117.527 266.367 116.434C266.081 115.34 265.651 114.441 265.078 113.738C264.505 113.035 263.783 112.514 262.91 112.176C262.038 111.824 261.016 111.648 259.844 111.648H254.57V108.562H259.844C261.445 108.562 262.891 108.816 264.18 109.324C265.469 109.819 266.576 110.568 267.5 111.57C268.424 112.56 269.128 113.79 269.609 115.262C270.104 116.733 270.352 118.439 270.352 120.379V125.203C270.352 127.143 270.104 128.849 269.609 130.32C269.128 131.792 268.418 133.022 267.48 134.012C266.543 135.001 265.404 135.75 264.062 136.258C262.734 136.753 261.217 137 259.512 137ZM256.66 108.562V137H253.066V108.562H256.66ZM291.211 133.934V137H278.867V133.934H291.211ZM279.512 108.562V137H275.918V108.562H279.512ZM289.551 120.789V123.855H278.867V120.789H289.551ZM291.016 108.562V111.648H278.867V108.562H291.016ZM303.613 132.684L310.449 108.562H314.355L305.527 137H302.773L303.613 132.684ZM297.48 108.562L304.258 132.684L305.156 137H302.402L293.574 108.562H297.48Z" fill="#38BDF8"/>
<line x1="168" y1="101" x2="246" y2="101" stroke="#38BDF8" stroke-width="2"/>
<line x1="319" y1="45" x2="397" y2="45" stroke="#38BDF8" stroke-width="2"/>
</svg>
