<svg xmlns="http://www.w3.org/2000/svg" fill="none" viewBox="0 0 800 800" id="Vitest--Streamline-Svg-Logos" height="800" width="800">
  <path fill="#fcc72b" d="M596.1800000000001 259.3666666666667 408.9125 530.13c-1.985 2.870833333333333 -4.8566666666666665 5.021666666666667 -8.178333333333335 6.125 -3.3216666666666668 1.1041666666666667 -6.9125000000000005 1.0933333333333335 -10.227500000000001 -0.015000000000000001 -3.314166666666667 -1.1141666666666667 -6.1725 -3.275833333333334 -8.140833333333333 -6.151666666666666 -1.9675000000000002 -2.880833333333334 -2.938333333333334 -6.321666666666667 -2.7625 -9.799166666666666l7.4941666666666675 -149.48916666666668 -120.99416666666667 -25.660833333333336c-2.585833333333334 -0.5475 -4.995000000000001 -1.7225000000000001 -7.015000000000001 -3.419166666666667 -2.0191666666666666 -1.6966666666666668 -3.586666666666667 -3.8641666666666667 -4.5633333333333335 -6.309166666666667 -0.9758333333333333 -2.4458333333333333 -1.3308333333333335 -5.093333333333334 -1.0333333333333334 -7.710000000000001 0.29750000000000004 -2.6158333333333337 1.2375 -5.12 2.7383333333333337 -7.2891666666666675L443.5 49.64725000000001c1.9858333333333336 -2.872416666666667 4.8566666666666665 -5.0224166666666665 8.178333333333335 -6.124666666666666 3.3225000000000002 -1.1021666666666667 6.913333333333334 -1.0965 10.228333333333335 0.017083333333333336 3.315 1.1131666666666669 6.173333333333334 3.273 8.140833333333333 6.152083333333334 1.9675000000000002 2.878666666666667 2.938333333333334 6.319 2.7625 9.79925l-7.495 149.49150000000003 120.99333333333334 25.657500000000002c2.585833333333334 0.5483333333333333 4.995000000000001 1.7225000000000001 7.016666666666667 3.419166666666667 2.0208333333333335 1.6975 3.585833333333334 3.8641666666666667 4.5600000000000005 6.3100000000000005 0.9791666666666666 2.4450000000000003 1.3316666666666668 5.093333333333334 1.0366666666666666 7.709166666666667 -0.29583333333333334 2.6166666666666667 -1.2391666666666667 5.118333333333333 -2.741666666666667 7.288333333333334Z" stroke-width="8.3333"></path>
  <path fill="#729b1b" d="M400.0725 757.2933333333334c-4.980833333333334 0.005 -9.913333333333334 -0.9691666666666667 -14.515 -2.876666666666667 -4.6016666666666675 -1.9066666666666667 -8.781666666666668 -4.705 -12.298333333333334 -8.229166666666668L196.3116666666667 569.2533333333333c-7.078333333333334 -7.115 -11.045833333333333 -16.74833333333333 -11.033333333333335 -26.785833333333336 0.013333333333333334 -10.0375 4.006666666666667 -19.665833333333335 11.105 -26.76 7.097500000000001 -7.099166666666667 16.721666666666668 -11.095 26.75916666666667 -11.11 10.039166666666668 -0.010833333333333334 19.673333333333332 3.9541666666666666 26.790833333333335 11.0325l150.13916666666668 150.12250000000003 327.0808333333333 -327.0641666666667c7.130000000000001 -7.015833333333334 16.742500000000003 -10.929166666666669 26.74416666666667 -10.888333333333334 10.006666666666668 0.04083333333333333 19.5875 4.032500000000001 26.655833333333337 11.105 7.073333333333334 7.073333333333334 11.069166666666668 16.655 11.110833333333334 26.657500000000002 0.035833333333333335 10.0025 -3.876666666666667 19.616666666666667 -10.893333333333333 26.74666666666667L426.88000000000005 746.1875000000001c-3.5166666666666666 3.529166666666667 -7.695833333333334 6.322500000000001 -12.295833333333334 8.229166666666668 -4.6000000000000005 1.9075 -9.531666666666666 2.881666666666667 -14.511666666666668 2.876666666666667Z" stroke-width="8.3333"></path>
  <path fill="#729b1b" fill-opacity=".5" d="M399.9225 757.2933333333334c4.980833333333334 0.005 9.914166666666667 -0.9691666666666667 14.515833333333335 -2.876666666666667 4.6016666666666675 -1.9066666666666667 8.780833333333335 -4.705 12.298333333333334 -8.229166666666668L603.6833333333333 569.2533333333333c7.0791666666666675 -7.115 11.048333333333336 -16.74833333333333 11.0325 -26.785833333333336 -0.01 -10.0375 -4.005833333333333 -19.665833333333335 -11.105 -26.76 -7.099166666666667 -7.099166666666667 -16.7225 -11.095 -26.76 -11.11 -10.0375 -0.010833333333333334 -19.670833333333334 3.9541666666666666 -26.790833333333335 11.0325L399.9225 665.7525 72.84300000000002 338.6883333333334c-7.130416666666667 -7.015833333333334 -16.744083333333336 -10.929166666666669 -26.74641666666667 -10.888333333333334 -10.002833333333333 0.04083333333333333 -19.58441666666667 4.032500000000001 -26.65725 11.105 -7.073083333333334 7.073333333333334 -11.064666666666668 16.655 -11.105666666666668 26.657500000000002 -0.04044166666666667 10.0025 3.873 19.616666666666667 10.88825 26.74666666666667L373.11500000000007 746.1875000000001c3.5175 3.529166666666667 7.695833333333334 6.322500000000001 12.295833333333334 8.229166666666668 4.600833333333334 1.9075 9.5325 2.881666666666667 14.511666666666668 2.876666666666667Z" stroke-width="8.3333"></path>
</svg>