<svg xmlns="http://www.w3.org/2000/svg" width="512" height="512" viewBox="0 0 512 512" version="1.1">
  <path d="M 223.500 128.037 C 211.616 129.375, 192.201 133.646, 180.147 137.574 C 166.683 141.962, 149.161 150.557, 141.903 156.334 C 135.686 161.283, 128.697 170.980, 126.763 177.344 C 125.788 180.553, 125.500 200.985, 125.500 267 C 125.500 345.188, 125.648 352.977, 127.228 358.077 C 132.233 374.233, 145.321 380.925, 172.026 380.980 C 181.736 381, 193.928 379.812, 204.250 377.839 L 210 376.740 210 291.345 L 210 205.950 212.750 204.898 C 226.761 199.534, 255.760 194.060, 274.307 193.280 L 288.113 192.699 289.965 189.069 C 295.903 177.429, 296.769 159.318, 291.880 149 C 287.286 139.303, 279.163 133.308, 265.500 129.529 C 258.303 127.539, 235.212 126.718, 223.500 128.037 M 324.754 289.028 C 318.470 290.604, 309.653 295.584, 305.048 300.159 C 295.025 310.117, 290.917 320.682, 290.917 336.500 C 290.917 357.615, 299.735 372.628, 317 380.904 L 324.500 384.500 339 384.500 L 353.500 384.500 361 380.904 C 378.265 372.628, 387.083 357.615, 387.083 336.500 C 387.083 315.384, 378.246 300.337, 361.020 292.125 C 353.814 288.690, 353.080 288.551, 341.020 288.324 C 334.134 288.194, 326.814 288.511, 324.754 289.028" stroke="none" fill="#fbfbfb" fill-rule="evenodd"/>
</svg>
