<svg xmlns="http://www.w3.org/2000/svg" width="800" height="800" viewBox="30 30 740 740" version="1.1">
  <path d="M 201 305.488 L 201 448.744 203.465 458.459 C 209.692 483.010, 226.017 507.886, 254.150 535.696 C 276.356 557.647, 297.956 574.934, 329.301 595.846 C 354.063 612.365, 395.787 637, 399.004 637 C 399.661 637, 400 589.821, 400 498.528 L 400 360.056 394.750 357.824 C 382.267 352.517, 356.355 339.160, 342.500 330.890 C 314.546 314.202, 294.606 298.723, 271.884 276.069 C 247.849 252.107, 230.851 229.238, 217.574 203 C 211.315 190.630, 203.541 172.126, 204.289 171.377 C 204.502 171.164, 205.953 173.355, 207.512 176.245 C 227.729 213.709, 260.312 250.268, 296.107 275.650 C 318.060 291.218, 347.775 307.026, 372.701 316.400 C 394.217 324.491, 423.762 332.271, 441.750 334.583 L 447 335.258 447 472.629 C 447 548.183, 447.294 610, 447.652 610 C 448.796 610, 466.978 598.127, 483.250 586.755 L 499 575.748 499 443.941 C 499 319.263, 498.905 312.108, 497.250 311.648 C 496.287 311.380, 492.350 310.870, 488.500 310.514 C 458.438 307.735, 414.464 298.540, 383 288.453 C 307.821 264.351, 244.578 222.216, 207.457 171.500 C 204.984 168.122, 205.616 168.510, 211.527 174 C 272.473 230.609, 369.130 267.537, 487.500 279.436 C 502.065 280.900, 534.240 283, 542.111 283 L 546 283 546 408.500 C 546 478.761, 546.382 534, 546.868 534 C 548.066 534, 565.285 514.464, 572.063 505.414 C 583.402 490.275, 591.633 474.245, 596.150 458.500 L 598.446 450.500 598.763 349.630 L 599.081 248.761 594.791 249.360 C 572.027 252.540, 493.181 252.659, 462 249.561 C 378.262 241.242, 294.851 218.456, 243.360 189.833 C 233.158 184.162, 211 170.196, 211 169.437 C 211 169.247, 214.938 170.911, 219.750 173.135 C 273.533 197.986, 339.398 213.898, 409.500 218.978 C 427.763 220.301, 480.111 220.286, 498.813 218.953 C 527.796 216.886, 572.716 210.914, 595 206.165 L 598.500 205.419 598.771 184.987 C 598.921 173.749, 598.837 164.018, 598.585 163.362 C 598.249 162.484, 596.463 162.688, 591.814 164.136 C 580.566 167.639, 550.114 175.015, 532.590 178.480 C 425.916 199.575, 311.799 194.694, 209.250 164.650 L 201 162.233 201 305.488" stroke="none" fill="#ffffff" fill-rule="evenodd"/>
</svg>
